<mxfile host="app.diagrams.net" agent="Mozilla/5.0 (X11; Ubuntu; Linux x86_64; rv:144.0) Gecko/20100101 Firefox/144.0" version="28.2.8">
  <diagram name="Page-1" id="9cAdi8g2TCim8FwbHY7r">
    <mxGraphModel dx="900" dy="548" grid="1" gridSize="10" guides="1" tooltips="1" connect="1" arrows="1" fold="1" page="1" pageScale="1" pageWidth="850" pageHeight="1100" math="0" shadow="0">
      <root>
        <mxCell id="0" />
        <mxCell id="1" parent="0" />
        <mxCell id="V7Zm8T6stNti8B_eVssc-1" value="" style="rounded=0;whiteSpace=wrap;html=1;" vertex="1" parent="1">
          <mxGeometry x="120" y="120" width="600" height="440" as="geometry" />
        </mxCell>
        <mxCell id="V7Zm8T6stNti8B_eVssc-2" value="MainWindow" style="text;html=1;whiteSpace=wrap;strokeColor=none;fillColor=none;align=center;verticalAlign=middle;rounded=0;" vertex="1" parent="1">
          <mxGeometry x="130" y="120" width="60" height="30" as="geometry" />
        </mxCell>
        <mxCell id="V7Zm8T6stNti8B_eVssc-3" value="" style="rounded=0;whiteSpace=wrap;html=1;fillColor=light-dark(#FFFFFF,#4D4D4D);" vertex="1" parent="1">
          <mxGeometry x="130" y="150" width="580" height="400" as="geometry" />
        </mxCell>
        <mxCell id="V7Zm8T6stNti8B_eVssc-4" value="CentralWidget" style="text;html=1;whiteSpace=wrap;strokeColor=none;fillColor=none;align=center;verticalAlign=middle;rounded=0;" vertex="1" parent="1">
          <mxGeometry x="140" y="150" width="60" height="30" as="geometry" />
        </mxCell>
        <mxCell id="V7Zm8T6stNti8B_eVssc-5" value="" style="rounded=0;whiteSpace=wrap;html=1;fillColor=#0050ef;fontColor=#ffffff;strokeColor=#001DBC;" vertex="1" parent="1">
          <mxGeometry x="140" y="180" width="560" height="360" as="geometry" />
        </mxCell>
        <mxCell id="V7Zm8T6stNti8B_eVssc-6" value="mainVerticalBoxLayout" style="text;html=1;whiteSpace=wrap;strokeColor=none;fillColor=none;align=center;verticalAlign=middle;rounded=0;" vertex="1" parent="1">
          <mxGeometry x="180" y="180" width="60" height="30" as="geometry" />
        </mxCell>
        <mxCell id="V7Zm8T6stNti8B_eVssc-8" value="" style="rounded=0;whiteSpace=wrap;html=1;fillColor=#008a00;fontColor=#ffffff;strokeColor=light-dark(#005700,#000000);" vertex="1" parent="1">
          <mxGeometry x="150" y="210" width="540" height="60" as="geometry" />
        </mxCell>
        <mxCell id="V7Zm8T6stNti8B_eVssc-9" value="" style="rounded=0;whiteSpace=wrap;html=1;fillColor=light-dark(#FFFFFF,#B3B3B3);strokeColor=light-dark(#000000,#0B0B0B);" vertex="1" parent="1">
          <mxGeometry x="150" y="270" width="540" height="30" as="geometry" />
        </mxCell>
        <mxCell id="V7Zm8T6stNti8B_eVssc-10" value="" style="rounded=0;whiteSpace=wrap;html=1;fillColor=#a20025;fontColor=#ffffff;strokeColor=light-dark(#6F0000, #000000);" vertex="1" parent="1">
          <mxGeometry x="150" y="300" width="540" height="230" as="geometry" />
        </mxCell>
        <mxCell id="V7Zm8T6stNti8B_eVssc-11" value="&lt;span style=&quot;color: light-dark(rgb(0, 0, 0), rgb(45, 45, 45));&quot;&gt;FunctionalHoizontalLayout&lt;/span&gt;" style="text;html=1;whiteSpace=wrap;strokeColor=none;fillColor=none;align=center;verticalAlign=middle;rounded=0;" vertex="1" parent="1">
          <mxGeometry x="150" y="300" width="160" height="30" as="geometry" />
        </mxCell>
        <mxCell id="V7Zm8T6stNti8B_eVssc-12" value="&lt;span style=&quot;color: light-dark(rgb(0, 0, 0), rgb(0, 0, 0));&quot;&gt;PlaceholderBackground&lt;/span&gt;" style="text;html=1;whiteSpace=wrap;strokeColor=none;fillColor=none;align=center;verticalAlign=middle;rounded=0;" vertex="1" parent="1">
          <mxGeometry x="190" y="270" width="60" height="30" as="geometry" />
        </mxCell>
        <mxCell id="V7Zm8T6stNti8B_eVssc-13" value="&lt;span style=&quot;color: light-dark(rgb(0, 0, 0), rgb(0, 0, 0));&quot;&gt;FunctionDisplayHorizontalLayout&lt;/span&gt;" style="text;html=1;whiteSpace=wrap;strokeColor=none;fillColor=none;align=center;verticalAlign=middle;rounded=0;" vertex="1" parent="1">
          <mxGeometry x="150" y="210" width="190" height="30" as="geometry" />
        </mxCell>
        <mxCell id="V7Zm8T6stNti8B_eVssc-14" value="" style="endArrow=none;dashed=1;html=1;rounded=0;entryX=0.5;entryY=0;entryDx=0;entryDy=0;exitX=0.5;exitY=1;exitDx=0;exitDy=0;strokeColor=light-dark(#000000,#000000);" edge="1" parent="1" source="V7Zm8T6stNti8B_eVssc-8" target="V7Zm8T6stNti8B_eVssc-8">
          <mxGeometry width="50" height="50" relative="1" as="geometry">
            <mxPoint x="360" y="260" as="sourcePoint" />
            <mxPoint x="410" y="210" as="targetPoint" />
          </mxGeometry>
        </mxCell>
        <mxCell id="V7Zm8T6stNti8B_eVssc-15" value="TextDisplayGray" style="text;html=1;whiteSpace=wrap;strokeColor=none;fillColor=none;align=center;verticalAlign=middle;rounded=0;" vertex="1" parent="1">
          <mxGeometry x="340" y="240" width="60" height="30" as="geometry" />
        </mxCell>
        <mxCell id="V7Zm8T6stNti8B_eVssc-16" value="spacer" style="text;html=1;whiteSpace=wrap;strokeColor=none;fillColor=none;align=center;verticalAlign=middle;rounded=0;" vertex="1" parent="1">
          <mxGeometry x="420" y="240" width="60" height="30" as="geometry" />
        </mxCell>
        <mxCell id="V7Zm8T6stNti8B_eVssc-17" value="" style="rounded=0;whiteSpace=wrap;html=1;fillColor=#b1ddf0;strokeColor=#10739e;" vertex="1" parent="1">
          <mxGeometry x="160" y="330" width="180" height="190" as="geometry" />
        </mxCell>
        <mxCell id="V7Zm8T6stNti8B_eVssc-18" value="" style="rounded=0;whiteSpace=wrap;html=1;fillColor=#6d8764;strokeColor=#3A5431;fontColor=#ffffff;" vertex="1" parent="1">
          <mxGeometry x="340" y="330" width="170" height="190" as="geometry" />
        </mxCell>
        <mxCell id="V7Zm8T6stNti8B_eVssc-19" value="" style="rounded=0;whiteSpace=wrap;html=1;fillColor=#76608a;fontColor=#ffffff;strokeColor=#432D57;" vertex="1" parent="1">
          <mxGeometry x="510" y="330" width="170" height="190" as="geometry" />
        </mxCell>
        <mxCell id="V7Zm8T6stNti8B_eVssc-20" value="CoordinateSystem" style="text;html=1;whiteSpace=wrap;strokeColor=none;fillColor=none;align=center;verticalAlign=middle;rounded=0;" vertex="1" parent="1">
          <mxGeometry x="190" y="330" width="60" height="30" as="geometry" />
        </mxCell>
        <mxCell id="V7Zm8T6stNti8B_eVssc-21" value="GraphSelector" style="text;html=1;whiteSpace=wrap;strokeColor=none;fillColor=none;align=center;verticalAlign=middle;rounded=0;" vertex="1" parent="1">
          <mxGeometry x="360" y="330" width="60" height="30" as="geometry" />
        </mxCell>
        <mxCell id="V7Zm8T6stNti8B_eVssc-22" value="SwitchTimeCalculator" style="text;html=1;whiteSpace=wrap;strokeColor=none;fillColor=none;align=center;verticalAlign=middle;rounded=0;" vertex="1" parent="1">
          <mxGeometry x="550" y="330" width="60" height="30" as="geometry" />
        </mxCell>
      </root>
    </mxGraphModel>
  </diagram>
</mxfile>
